# Blender v2.77 (sub 0) OBJ File: 'gem.blend'
# www.blender.org
o Circle
v 0.000000 0.228830 -0.225289
v -0.159303 0.228830 -0.159303
v -0.225289 0.228830 0.000000
v -0.159303 0.228830 0.159303
v 0.000000 0.228830 0.225289
v 0.159303 0.228830 0.159303
v 0.225289 0.228830 -0.000000
v 0.159303 0.228830 -0.159303
v 0.000000 0.344868 -0.138220
v -0.097736 0.344868 -0.097736
v -0.138220 0.344868 0.000000
v -0.097736 0.344868 0.097736
v 0.000000 0.344868 0.138220
v 0.097736 0.344868 0.097736
v 0.138220 0.344868 -0.000000
v 0.097736 0.344868 -0.097736
v 0.000000 0.344868 -0.000000
v 0.000000 0.000000 -0.000000
vn 0.3145 0.5697 0.7593
vn -0.7593 0.5697 0.3145
vn -0.3145 0.5697 -0.7593
vn 0.3145 0.5697 -0.7593
vn 0.7593 0.5697 0.3145
vn -0.3145 0.5697 0.7593
vn -0.7593 0.5697 -0.3145
vn 0.7593 0.5697 -0.3145
vn -0.0000 1.0000 0.0000
vn 0.2831 -0.6729 0.6834
vn -0.6834 -0.6729 0.2831
vn -0.2831 -0.6729 -0.6834
vn 0.2831 -0.6729 -0.6834
vn 0.6834 -0.6729 0.2831
vn -0.2831 -0.6729 0.6834
vn -0.6834 -0.6729 -0.2831
vn 0.6834 -0.6729 -0.2831
s off
f 6//1 14//1 13//1 5//1
f 4//2 12//2 11//2 3//2
f 2//3 10//3 9//3 1//3
f 1//4 9//4 16//4 8//4
f 7//5 15//5 14//5 6//5
f 5//6 13//6 12//6 4//6
f 3//7 11//7 10//7 2//7
f 8//8 16//8 15//8 7//8
f 9//9 17//9 16//9
f 15//9 17//9 14//9
f 13//9 17//9 12//9
f 11//9 17//9 10//9
f 16//9 17//9 15//9
f 14//9 17//9 13//9
f 12//9 17//9 11//9
f 10//9 17//9 9//9
f 5//10 18//10 6//10
f 3//11 18//11 4//11
f 1//12 18//12 2//12
f 8//13 18//13 1//13
f 6//14 18//14 7//14
f 4//15 18//15 5//15
f 2//16 18//16 3//16
f 7//17 18//17 8//17
