# Blender v2.77 (sub 0) OBJ File: 'gem.blend'
# www.blender.org
o Circle
v 0.000000 0.228830 -0.225289
v -0.159303 0.228830 -0.159303
v -0.225289 0.228830 0.000000
v -0.159303 0.228830 0.159303
v 0.000000 0.228830 0.225289
v 0.159303 0.228830 0.159303
v 0.225289 0.228830 -0.000000
v 0.159303 0.228830 -0.159303
v 0.000000 0.344868 -0.138220
v -0.097736 0.344868 -0.097736
v -0.138220 0.344868 0.000000
v -0.097736 0.344868 0.097736
v 0.000000 0.344868 0.138220
v 0.097736 0.344868 0.097736
v 0.138220 0.344868 -0.000000
v 0.097736 0.344868 -0.097736
v 0.000000 0.344868 -0.000000
v 0.000000 0.000000 -0.000000
vt 0.3291 0.7447
vt 0.3236 0.7682
vt 0.3060 0.7682
vt 0.3005 0.7447
vt 0.3827 0.6624
vt 0.4062 0.6679
vt 0.4062 0.6855
vt 0.3827 0.6911
vt 0.3748 0.7395
vt 0.3983 0.7451
vt 0.3983 0.7627
vt 0.3748 0.7682
vt 0.6176 0.8474
vt 0.6271 0.8071
vt 0.6572 0.8071
vt 0.6667 0.8474
vt 0.8502 0.6185
vt 0.8407 0.6587
vt 0.8105 0.6587
vt 0.8010 0.6185
vt 0.8434 0.7578
vt 0.8340 0.7980
vt 0.8038 0.7980
vt 0.7943 0.7578
vt 0.7163 0.8474
vt 0.7258 0.8071
vt 0.7559 0.8071
vt 0.7654 0.8474
vt 0.4114 0.6912
vt 0.4058 0.7147
vt 0.3882 0.7147
vt 0.3827 0.6912
vt 0.1151 0.7949
vt 0.1049 0.7907
vt 0.1151 0.7865
vt 0.1254 0.7949
vt 0.1152 0.7907
vt 0.1254 0.7865
vt 0.0828 0.7865
vt 0.0938 0.7865
vt 0.0860 0.7943
vt 0.1436 0.7805
vt 0.1546 0.7805
vt 0.1468 0.7883
vt 0.1461 0.7724
vt 0.1461 0.7614
vt 0.1538 0.7691
vt 0.0971 0.7865
vt 0.1049 0.7943
vt 0.0939 0.7943
vt 0.1468 0.7727
vt 0.1244 0.7862
vt 0.1244 0.7752
vt 0.1322 0.7830
vt 0.7403 0.3165
vt 0.8091 0.2027
vt 0.8091 0.3357
vt 0.6614 0.3360
vt 0.7895 0.3717
vt 0.6614 0.4074
vt 0.6663 0.1336
vt 0.7993 0.1336
vt 0.6855 0.2024
vt 0.1644 0.3042
vt 0.1644 0.1721
vt 0.2327 0.2852
vt 0.2330 0.3042
vt 0.2330 0.1721
vt 0.3014 0.2852
vt 0.1644 0.3046
vt 0.2916 0.3400
vt 0.1644 0.3755
vt 0.1644 0.1035
vt 0.2965 0.1035
vt 0.1834 0.1718
vt 0.6712 0.3357
vt 0.6712 0.2027
vt 0.7400 0.3165
vn 0.3145 0.5697 0.7593
vn -0.7593 0.5697 0.3145
vn -0.3145 0.5697 -0.7593
vn 0.3145 0.5697 -0.7593
vn 0.7593 0.5697 0.3145
vn -0.3145 0.5697 0.7593
vn -0.7593 0.5697 -0.3145
vn 0.7593 0.5697 -0.3145
vn -0.0000 1.0000 0.0000
vn 0.2831 -0.6729 0.6834
vn -0.6834 -0.6729 0.2831
vn -0.2831 -0.6729 -0.6834
vn 0.2831 -0.6729 -0.6834
vn 0.6834 -0.6729 0.2831
vn -0.2831 -0.6729 0.6834
vn -0.6834 -0.6729 -0.2831
vn 0.6834 -0.6729 -0.2831
s off
f 6/1/1 14/2/1 13/3/1 5/4/1
f 4/5/2 12/6/2 11/7/2 3/8/2
f 2/9/3 10/10/3 9/11/3 1/12/3
f 1/13/4 9/14/4 16/15/4 8/16/4
f 7/17/5 15/18/5 14/19/5 6/20/5
f 5/21/6 13/22/6 12/23/6 4/24/6
f 3/25/7 11/26/7 10/27/7 2/28/7
f 8/29/8 16/30/8 15/31/8 7/32/8
f 9/33/9 17/34/9 16/35/9
f 15/36/9 17/37/9 14/38/9
f 13/39/9 17/40/9 12/41/9
f 11/42/9 17/43/9 10/44/9
f 16/45/9 17/46/9 15/47/9
f 14/48/9 17/49/9 13/50/9
f 12/51/9 17/43/9 11/42/9
f 10/52/9 17/53/9 9/54/9
f 5/55/10 18/56/10 6/57/10
f 3/58/11 18/59/11 4/60/11
f 1/61/12 18/62/12 2/63/12
f 8/64/13 18/65/13 1/66/13
f 6/67/14 18/68/14 7/69/14
f 4/70/15 18/71/15 5/72/15
f 2/73/16 18/74/16 3/75/16
f 7/76/17 18/77/17 8/78/17
