# Blender v2.75 (sub 0) OBJ File: ''
# www.blender.org
o Cube.001
v -0.500000 1.000000 0.500000
v -0.500000 1.000000 -0.500000
v -0.500000 0.000000 -0.500000
v -0.500000 0.000000 0.500000
v 0.500000 1.000000 -0.500000
v 0.500000 0.000000 -0.500000
v 0.500000 1.000000 0.500000
v 0.500000 0.000000 0.500000
vt 0.614400 0.119300
vt 0.905300 0.119300
vt 0.905300 0.410200
vt 0.614400 0.410200
vt 0.112600 0.139400
vt 0.282900 0.139400
vt 0.282900 0.309700
vt 0.112600 0.309700
vt 0.649500 0.104700
vt 0.913900 0.104700
vt 0.913900 0.369000
vt 0.649500 0.369000
vt 0.086200 0.135700
vt 0.371000 0.135700
vt 0.371000 0.420500
vt 0.086200 0.420500
vt 0.000000 -1.421900
vt 1.000000 -1.421900
vt 1.000000 -0.421900
vt 0.000000 -0.421900
vt 0.007100 0.507100
vt 0.492900 0.507100
vt 0.492900 0.992900
vt 0.007100 0.992900
vn -1.000000 0.000000 0.000000
vn 0.000000 0.000000 -1.000000
vn 1.000000 0.000000 0.000000
vn 0.000000 -0.000000 1.000000
vn 0.000000 -1.000000 -0.000000
vn 0.000000 1.000000 0.000000
s 1
f 1/1/1 2/2/1 3/3/1 4/4/1
f 2/5/2 5/6/2 6/7/2 3/8/2
f 5/9/3 7/10/3 8/11/3 6/12/3
f 7/13/4 1/14/4 4/15/4 8/16/4
f 4/17/5 3/18/5 6/19/5 8/20/5
f 7/21/6 5/22/6 2/23/6 1/24/6
