# Blender v2.77 (sub 0) OBJ File: 'plate.blend'
# www.blender.org
o Cube
v -0.500000 -0.500000 0.500000
v -0.500000 0.500000 0.500000
v -0.500000 -0.500000 -0.500000
v -0.500000 0.500000 -0.500000
v 0.500000 -0.500000 0.500000
v 0.500000 0.500000 0.500000
v 0.500000 -0.500000 -0.500000
v 0.500000 0.500000 -0.500000
vt 0.6144 0.1193
vt 0.9053 0.1193
vt 0.9053 0.4102
vt 0.6144 0.4102
vt 0.1126 0.1394
vt 0.2829 0.1394
vt 0.2829 0.3097
vt 0.1126 0.3097
vt 0.6495 0.1047
vt 0.9139 0.1047
vt 0.9139 0.3690
vt 0.6495 0.3690
vt 0.0862 0.1357
vt 0.3710 0.1357
vt 0.3710 0.4205
vt 0.0862 0.4205
vt 0.0000 -1.4219
vt 1.0000 -1.4219
vt 1.0000 -0.4219
vt 0.0000 -0.4219
vt 0.0071 0.5071
vt 0.4929 0.5071
vt 0.4929 0.9929
vt 0.0071 0.9929
vn -1.0000 0.0000 0.0000
vn 0.0000 0.0000 -1.0000
vn 1.0000 0.0000 0.0000
vn 0.0000 0.0000 1.0000
vn 0.0000 -1.0000 0.0000
vn 0.0000 1.0000 0.0000
s off
f 2/1/1 4/2/1 3/3/1 1/4/1
f 4/5/2 8/6/2 7/7/2 3/8/2
f 8/9/3 6/10/3 5/11/3 7/12/3
f 6/13/4 2/14/4 1/15/4 5/16/4
f 1/17/5 3/18/5 7/19/5 5/20/5
f 6/21/6 8/22/6 4/23/6 2/24/6
