# Blender v2.76 (sub 0) OBJ File: 'section.blend'
# www.blender.org
o Circle
v 0.000000 0.000000 -1.000000
v -0.500000 0.000000 -0.866025
v -0.866025 0.000000 -0.500000
v -1.000000 0.000000 0.000000
v -0.866025 0.000000 0.500000
v -0.500000 0.000000 0.866025
v -0.000000 0.000000 1.000000
v 0.500000 0.000000 0.866026
v 0.866025 0.000000 0.500000
v 1.000000 0.000000 0.000000
v 0.866026 0.000000 -0.499999
v 0.500001 0.000000 -0.866025
v 0.000000 0.500000 -1.000000
v -0.500000 0.500000 -0.866025
v -0.866025 0.500000 -0.500000
v -1.000000 0.500000 0.000000
v -0.866025 0.500000 0.500000
v -0.500000 0.500000 0.866025
v -0.000000 0.500000 1.000000
v 0.500000 0.500000 0.866026
v 0.866025 0.500000 0.500000
v 1.000000 0.500000 0.000000
v 0.866026 0.500000 -0.499999
v 0.500001 0.500000 -0.866025
v 0.000000 0.500000 0.000000
v 0.000000 0.000000 0.000000
v 0.000000 0.000000 -1.000000
v -0.500000 0.000000 -0.866025
v -0.866025 0.000000 -0.500000
v -1.000000 0.000000 0.000000
v -0.866025 0.000000 0.500000
v -0.500000 0.000000 0.866025
v -0.000000 0.000000 1.000000
v 0.500000 0.000000 0.866026
v 0.866025 0.000000 0.500000
v 1.000000 0.000000 0.000000
v 0.866026 0.000000 -0.499999
v 0.500001 0.000000 -0.866025
v 0.000000 0.500000 -1.000000
v -0.500000 0.500000 -0.866025
v -0.866025 0.500000 -0.500000
v -1.000000 0.500000 0.000000
v -0.866025 0.500000 0.500000
v -0.500000 0.500000 0.866025
v -0.000000 0.500000 1.000000
v 0.500000 0.500000 0.866026
v 0.866025 0.500000 0.500000
v 1.000000 0.500000 0.000000
v 0.866026 0.500000 -0.499999
v 0.500001 0.500000 -0.866025
v 0.000000 0.500000 0.000000
v 0.000000 0.000000 0.000000
vn -0.707100 0.000000 -0.707100
vn 0.965900 0.000000 0.258800
vn -0.258800 0.000000 0.965900
vn -0.965900 0.000000 -0.258800
vn 0.965900 0.000000 -0.258800
vn 0.258800 0.000000 0.965900
vn -0.965900 0.000000 0.258800
vn 0.707100 0.000000 -0.707100
vn -0.258800 0.000000 -0.965900
vn 0.707100 0.000000 0.707100
vn -0.707100 0.000000 0.707100
vn 0.258800 0.000000 -0.965900
vn 0.000000 1.000000 0.000000
vn 0.000000 -1.000000 0.000000
s off
f 3//1 15//1 14//1 2//1
f 10//2 22//2 21//2 9//2
f 7//3 19//3 18//3 6//3
f 4//4 16//4 15//4 3//4
f 11//5 23//5 22//5 10//5
f 8//6 20//6 19//6 7//6
f 5//7 17//7 16//7 4//7
f 12//8 24//8 23//8 11//8
f 2//9 14//9 13//9 1//9
f 9//10 21//10 20//10 8//10
f 6//11 18//11 17//11 5//11
f 1//12 13//12 24//12 12//12
f 20//13 25//13 19//13
f 17//13 25//13 16//13
f 24//13 25//13 23//13
f 14//13 25//13 13//13
f 21//13 25//13 20//13
f 18//13 25//13 17//13
f 13//13 25//13 24//13
f 15//13 25//13 14//13
f 22//13 25//13 21//13
f 19//13 25//13 18//13
f 16//13 25//13 15//13
f 23//13 25//13 22//13
f 12//14 26//14 1//14
f 5//14 26//14 6//14
f 8//14 26//14 9//14
f 1//14 26//14 2//14
f 11//14 26//14 12//14
f 4//14 26//14 5//14
f 7//14 26//14 8//14
f 10//14 26//14 11//14
f 3//14 26//14 4//14
f 6//14 26//14 7//14
f 9//14 26//14 10//14
f 2//14 26//14 3//14
f 29//1 41//1 40//1 28//1
f 36//2 48//2 47//2 35//2
f 33//3 45//3 44//3 32//3
f 30//4 42//4 41//4 29//4
f 37//5 49//5 48//5 36//5
f 34//6 46//6 45//6 33//6
f 31//7 43//7 42//7 30//7
f 38//8 50//8 49//8 37//8
f 28//9 40//9 39//9 27//9
f 35//10 47//10 46//10 34//10
f 32//11 44//11 43//11 31//11
f 27//12 39//12 50//12 38//12
f 46//13 51//13 45//13
f 43//13 51//13 42//13
f 50//13 51//13 49//13
f 40//13 51//13 39//13
f 47//13 51//13 46//13
f 44//13 51//13 43//13
f 39//13 51//13 50//13
f 41//13 51//13 40//13
f 48//13 51//13 47//13
f 45//13 51//13 44//13
f 42//13 51//13 41//13
f 49//13 51//13 48//13
f 38//14 52//14 27//14
f 31//14 52//14 32//14
f 34//14 52//14 35//14
f 27//14 52//14 28//14
f 37//14 52//14 38//14
f 30//14 52//14 31//14
f 33//14 52//14 34//14
f 36//14 52//14 37//14
f 29//14 52//14 30//14
f 32//14 52//14 33//14
f 35//14 52//14 36//14
f 28//14 52//14 29//14
