# Blender v2.75 (sub 0) OBJ File: ''
# www.blender.org
o Cube.001_Cube.002
v -0.202592 -3.195915 0.118658
v -0.202592 3.195915 0.118658
v -0.202592 -3.195915 -0.118657
v -0.202592 3.195915 -0.118658
v 0.202592 -3.195915 0.118658
v 0.202592 3.195915 0.118658
v 0.202592 -3.195915 -0.118657
v 0.202592 3.195915 -0.118658
v -0.202592 3.291216 0.100754
v -0.202592 3.072345 -6.287328
v -0.202592 3.054039 0.108881
v -0.202592 2.835169 -6.279202
v 0.202592 3.291216 0.100754
v 0.202592 3.072345 -6.287328
v 0.202592 3.054039 0.108881
v 0.202592 2.835169 -6.279202
vn -1.000000 0.000000 0.000000
vn 0.000000 -0.000000 -1.000000
vn 1.000000 0.000000 0.000000
vn 0.000000 0.000000 1.000000
vn 0.000000 -1.000000 -0.000000
vn 0.000000 1.000000 0.000000
vn 0.000000 -0.999400 0.034200
vn 0.000000 0.999400 -0.034200
vn 0.000000 0.034200 0.999400
vn 0.000000 -0.034200 -0.999400
s off
f 2//1 4//1 3//1 1//1
f 4//2 8//2 7//2 3//2
f 8//3 6//3 5//3 7//3
f 6//4 2//4 1//4 5//4
f 1//5 3//5 7//5 5//5
f 6//6 8//6 4//6 2//6
f 10//1 12//1 11//1 9//1
f 12//7 16//7 15//7 11//7
f 16//3 14//3 13//3 15//3
f 14//8 10//8 9//8 13//8
f 9//9 11//9 15//9 13//9
f 14//10 16//10 12//10 10//10
