# Blender v2.77 (sub 0) OBJ File: 'touch.blend'
# www.blender.org
o Cylinder.001_Cylinder.000
v -0.068218 -0.004860 -0.393008
v 0.067532 -0.004860 -0.393127
v 0.229662 -0.004860 -0.326136
v 0.325735 -0.004860 -0.230231
v 0.393008 -0.004860 -0.068218
v 0.393127 -0.004860 0.067532
v 0.326136 -0.004860 0.229662
v 0.230231 -0.004860 0.325735
v 0.068218 -0.004860 0.393008
v -0.067531 -0.004860 0.393127
v -0.229662 -0.004860 0.326136
v -0.325735 -0.004860 0.230231
v -0.393008 -0.004860 0.068218
v -0.393127 -0.004860 -0.067532
v -0.326136 -0.004860 -0.229662
v -0.230230 -0.004860 -0.325735
v -0.395721 -0.004860 -0.299125
v -0.299815 -0.004860 -0.395198
v -0.491330 -0.004860 0.068303
v -0.491449 -0.004860 -0.067446
v -0.299125 -0.004860 0.395721
v -0.395198 -0.004860 0.299815
v 0.068304 -0.004860 0.491330
v -0.067446 -0.004860 0.491449
v 0.395721 -0.004860 0.299125
v 0.299815 -0.004860 0.395198
v 0.491330 -0.004860 -0.068303
v 0.491449 -0.004860 0.067446
v 0.299125 -0.004860 -0.395721
v 0.395198 -0.004860 -0.299815
v 0.067446 -0.004860 -0.491449
v -0.068303 -0.004860 -0.491330
v 0.067532 0.004858 -0.393127
v 0.229662 0.004858 -0.326136
v 0.325735 0.004858 -0.230231
v 0.393008 0.004858 -0.068218
v 0.393127 0.004858 0.067532
v 0.326136 0.004858 0.229662
v 0.230231 0.004858 0.325735
v 0.068218 0.004858 0.393008
v -0.067531 0.004858 0.393127
v -0.229662 0.004858 0.326136
v -0.325735 0.004858 0.230231
v -0.393008 0.004858 0.068218
v -0.393127 0.004858 -0.067532
v -0.326136 0.004858 -0.229662
v -0.230230 0.004858 -0.325735
v -0.068218 0.004858 -0.393008
v -0.395721 0.004858 -0.299125
v -0.299815 0.004858 -0.395198
v -0.491330 0.004858 0.068303
v -0.491449 0.004858 -0.067446
v -0.299125 0.004858 0.395721
v -0.395198 0.004858 0.299815
v 0.068304 0.004858 0.491330
v -0.067446 0.004858 0.491449
v 0.395721 0.004858 0.299125
v 0.299815 0.004858 0.395198
v 0.491330 0.004858 -0.068303
v 0.491449 0.004858 0.067446
v 0.299125 0.004858 -0.395721
v 0.395198 0.004858 -0.299815
v -0.068303 0.004858 -0.491330
v 0.067446 0.004858 -0.491449
vn 0.0000 -1.0000 0.0000
vn 0.0000 1.0000 0.0000
vn 0.9242 0.0000 0.3819
vn -0.0009 0.0000 -1.0000
vn 0.7077 0.0000 0.7065
vn 0.3835 0.0000 0.9235
vn -1.0000 0.0000 0.0009
vn 0.0009 0.0000 1.0000
vn -0.3819 0.0000 0.9242
vn 1.0000 0.0000 -0.0009
vn -0.9235 0.0000 0.3835
vn -0.9242 0.0000 -0.3819
vn -0.3835 0.0000 -0.9235
vn -0.7065 0.0000 0.7077
vn -0.7077 0.0000 -0.7065
vn 0.7065 0.0000 -0.7077
vn 0.3819 0.0000 -0.9242
vn 0.9235 0.0000 -0.3835
s off
f 13//1 19//1 20//1 14//1
f 15//1 17//1 18//1 16//1
f 11//1 21//1 22//1 12//1
f 9//1 23//1 24//1 10//1
f 7//1 25//1 26//1 8//1
f 5//1 27//1 28//1 6//1
f 3//1 29//1 30//1 4//1
f 1//1 32//1 31//1 2//1
f 2//1 3//1 4//1 5//1 6//1 7//1 8//1 9//1 10//1 11//1 12//1 13//1 14//1 15//1 16//1 1//1
f 44//2 45//2 52//2 51//2
f 46//2 47//2 50//2 49//2
f 42//2 43//2 54//2 53//2
f 40//2 41//2 56//2 55//2
f 38//2 39//2 58//2 57//2
f 36//2 37//2 60//2 59//2
f 34//2 35//2 62//2 61//2
f 48//2 33//2 64//2 63//2
f 33//2 48//2 47//2 46//2 45//2 44//2 43//2 42//2 41//2 40//2 39//2 38//2 37//2 36//2 35//2 34//2
f 7//3 6//3 37//3 38//3
f 31//4 32//4 63//4 64//4
f 21//5 11//5 42//5 53//5
f 9//6 8//6 39//6 40//6
f 32//7 1//7 48//7 63//7
f 24//8 23//8 55//8 56//8
f 11//9 10//9 41//9 42//9
f 2//10 31//10 64//10 33//10
f 10//7 24//7 56//7 41//7
f 13//11 12//11 43//11 44//11
f 23//10 9//10 40//10 55//10
f 15//12 14//12 45//12 46//12
f 26//5 25//5 57//5 58//5
f 1//13 16//13 47//13 48//13
f 8//14 26//14 58//14 39//14
f 18//15 17//15 49//15 50//15
f 25//16 7//16 38//16 57//16
f 16//16 18//16 50//16 47//16
f 28//10 27//10 59//10 60//10
f 17//14 15//14 46//14 49//14
f 6//8 28//8 60//8 37//8
f 20//7 19//7 51//7 52//7
f 27//4 5//4 36//4 59//4
f 14//4 20//4 52//4 45//4
f 30//16 29//16 61//16 62//16
f 19//8 13//8 44//8 51//8
f 3//17 2//17 33//17 34//17
f 4//5 30//5 62//5 35//5
f 22//14 21//14 53//14 54//14
f 5//18 4//18 35//18 36//18
f 29//15 3//15 34//15 61//15
f 12//15 22//15 54//15 43//15
